{"title":"The Adjustment Bureau 2011 PPVRiP XviD - iLLUSiON","uid":6372998,"size":1248429493,"categoryP":"video","categoryS":"movies","magnet":"?xt=urn:btih:b1614947bfc1313726574a740f75a10e311a49eb&amp;dn=The+Adjustment+Bureau+2011+PPVRiP+XviD+-+iLLUSiON&amp;tr=udp%3A%2F%2Ftracker.openbittorrent.com%3A80&amp;tr=udp%3A%2F%2Fopen.demonii.com%3A1337&amp;tr=udp%3A%2F%2Ftracker.coppersurfer.tk%3A6969&amp;tr=udp%3A%2F%2Fexodus.desync.com%3A6969","seeders":2,"leechers":0,"uploader":"hiest","files":-1,"time":1304750763,"description":"#### ##       ##       ##     ##  ######  ####  #######  ##    ## \n ##  ##       ##       ##     ## ##    ##  ##  ##     ## ###   ## \n ##  ##       ##       ##     ## ##        ##  ##     ## ####  ## \n ##  ##       ##       ##     ##  ######   ##  ##     ## ## ## ## \n ##  ##       ##       ##     ##       ##  ##  ##     ## ##  #### \n ##  ##       ##       ##     ## ##    ##  ##  ##     ## ##   ### \n#### ######## ########  #######   ######  ####  #######  ##    ## \n\nMovie Info\nPlot: The affair between a politician and \n a ballerina is affected by mysterious forces keeping the lovers apart. \n IMDB:  &lt;a href=&quot;\nhttp://www.imdb.com/title/tt1385826/&quot; rel=&quot;nofollow&quot; target=&quot;_NEW&quot;&gt;\nhttp://www.imdb.com/title/tt1385826/&lt;/a&gt;\n IMDB Rating: 7.1\n\n\n\n\nGeneral Info\nSize: 1.14GB\n Format: AVI\n Runtime: 1:45:02\n\n\n\nSources\nVideo - The Adjustment Bureau PPVRIP IFLIX\n Audio - The Adjustment Bureau PPVRIP IFLIX\n (THANKS)\n\n\n\nVideo Info\nID : 0\n Format : MPEG-4 Visual\n Format profile : Advanced Simple@L5\n Format settings, BVOP : 2\n Format settings, QPel : No\n Format settings, GMC : No warppoints\n Format settings, Matrix : Default (H.263)\n Muxing mode : Packed bitstream\n Codec ID : XVID\n Codec ID/Hint : XviD\n Duration : 1h 45mn\n Bit rate : 1 426 Kbps\n Width : 704 pixels\n Height : 432 pixels\n Display aspect ratio : 1.630\n Frame rate : 29.970 fps\n Color space : YUV\n Chroma subsampling : 4:2:0\n Bit depth : 8 bits\n Scan type : Progressive\n Compression mode : Lossy\n Bits/(Pixel*Frame) : 0.156\n Stream size : 1.05 GiB (91%)\n Writing library : XviD 58\n\n\n\nAudio Info\nID : 1\n Format : MPEG Audio\n Format version : Version 1\n Format profile : Layer 3\n Mode : Joint stereo\n Mode extension : MS Stereo\n Codec ID : 55\n Codec ID/Hint : MP3\n Duration : 1h 45mn\n Bit rate mode : Constant\n Bit rate : 128 Kbps\n Channel(s) : 2 channels\n Sampling rate : 44.1 KHz\n Compression mode : Lossy\n Stream size : 95.9 MiB (8%)\n Alignment : Split accross interleaves\n Interleave, duration : 33 ms (1.00 video frame)\n Interleave, preload duration : 501 ms\n\n\n\n\nEncoders Notes\nI made a small avs script to crop &amp; resize.\n I dropped that into vdubmod.\n There i lowered the brightness &amp; saturation,\n increased the contrast &amp; gamma.\n Then i de-noised it, changed the colors with a rgb eq,\n used a color de-noiser's &amp; sharpened it.\n Finaly i re-encoded the audio &amp; muxed it to the video.\n The a:r is off but i think it's better than the source.\n Its deffinatley watchable &amp; better than most TS's.\n Download the sample first to check that your happy with the quality.\n Enjoy...\n\n\nI am looking for:\n Cammers, Cams, Screeners (any type), Cam audio, Line audio, \n Un-released R6's R5's R4's R2's R1's, \n A Windows Server &amp; a syncer. \n If you can provide any of these please\n contact me at &lt;a class=&quot;__cf_email__&quot; href=&quot;/cdn-cgi/l/email-protection&quot; data-cfemail=&quot;650c090910160c0a0b250d10160d08040c094b0800&quot;&gt;[email&amp;#160;protected]&lt;/a&gt;&lt;script cf-hash='f9e31' type=&quot;text/javascript&quot;&gt;\n/* &lt;![CDATA[ */!function(){try{var t=&quot;currentScript&quot;in document?document.currentScript:function(){for(var t=document.getElementsByTagName(&quot;script&quot;),e=t.length;e--;)if(t[e].getAttribute(&quot;cf-hash&quot;))return t[e]}();if(t&amp;&amp;t.previousSibling){var e,r,n,i,c=t.previousSibling,a=c.getAttribute(&quot;data-cfemail&quot;);if(a){for(e=&quot;&quot;,r=parseInt(a.substr(0,2),16),n=2;a.length-n;n+=2)i=parseInt(a.substr(n,2),16)^r,e+=String.fromCharCode(i);e=document.createTextNode(e),c.parentNode.replaceChild(e,c)}}}catch(u){}}();/* ]]&gt; */&lt;/script&gt;\n\n#### ##       ##       ##     ##  ######  ####  #######  ##    ## \n ##  ##       ##       ##     ## ##    ##  ##  ##     ## ###   ## \n ##  ##       ##       ##     ## ##        ##  ##     ## ####  ## \n ##  ##       ##       ##     ##  ######   ##  ##     ## ## ## ## \n ##  ##       ##       ##     ##       ##  ##  ##     ## ##  #### \n ##  ##       ##       ##     ## ##    ##  ##  ##     ## ##   ### \n#### ######## ########  #######   ######  ####  #######  ##    ## ","torrent":{"xt":"urn:btih:b1614947bfc1313726574a740f75a10e311a49eb","amp;dn":"The+Adjustment+Bureau+2011+PPVRiP+XviD+-+iLLUSiON","amp;tr":["udp%3A%2F%2Ftracker.openbittorrent.com%3A80","udp%3A%2F%2Fopen.demonii.com%3A1337","udp%3A%2F%2Ftracker.coppersurfer.tk%3A6969","udp%3A%2F%2Fexodus.desync.com%3A6969"],"infoHash":"b1614947bfc1313726574a740f75a10e311a49eb","infoHashBuffer":{"type":"Buffer","data":[177,97,73,71,191,193,49,55,38,87,74,116,15,117,161,14,49,26,73,235]},"announce":[],"urlList":[]}}